<svg width="64" height="64" viewBox="0 0 64 64" fill="none" xmlns="http://www.w3.org/2000/svg">
<path d="M33.0377 0.469519C26.3456 2.16288 22.321 9.27831 26.2891 15.2409C29.2743 19.7264 32.2612 23.3647 27.4512 25.7411C24.3496 27.2737 20.807 23.5558 21.3252 19.1961C21.9643 13.8192 18.8409 8.58078 15.1992 7.48361C21.3401 21.6175 9.42718 30.9912 11.9413 17.7227C7.91896 19.8603 7.5872 25.5609 10.4472 34.0214C5.08528 31.737 3.1332 25.1539 5.36286 18.009C0.599402 21.7742 -1.71605 35.3947 3.42034 42.3761C16.1189 59.6356 30.9582 63.9206 33.5937 63.9206C36.4019 63.9206 49.1772 59.4426 58.7742 48.6305C64.3234 42.3785 65.5378 26.1985 59.9987 16.2697C60.7929 19.6345 59.1863 26.4678 55.5037 28.7583C56.1675 21.0852 54.984 10.0392 50.6308 5.97699C54.9634 28.9273 38.2779 26.1913 44.2061 19.1958C48.1254 14.5706 44.1836 5.58253 41.8819 4.27101C43.3288 9.86507 39.9907 13.5249 34.6144 12.4305C30.995 11.6938 28.672 6.45963 33.0375 0.469121L33.0377 0.469519ZM17.7434 28.5554H20.2254V50.4941L33.8679 57.9068L47.5098 50.4941V28.5594H49.9921V51.9715L49.3403 52.3244L34.457 60.4054L33.8676 60.7292L33.2742 60.4054L18.3907 52.3243L17.7434 51.9717V28.5551V28.5554ZM22.7278 28.5842L32.4939 34.4986V54.1964L22.7278 48.6929V28.5841V28.5842ZM45.0031 28.5842V48.6929L34.9758 54.3458V34.6602L45.0031 28.5841V28.5842Z" fill="black"/>
</svg>
